<svg xmlns="http://www.w3.org/2000/svg" xmlns:xlink="http://www.w3.org/1999/xlink" version="1.1" id="Ebene_1" x="0px" y="0px" width="70" height="40" viewBox="0 0 70 40" enable-background="new 0 0 70 40" xml:space="preserve">
<path fill="#B61F29" d="M1.778,21.233c2.818-1.351,12.726-8.296,22.273,3.383C32.7,35.2,34.371,39.187,37.547,36.729  c3.824-2.959-11.094-32.524-37.198-15.989C-0.189,21.403,0.376,21.909,1.778,21.233z"/>
<path fill="#B61F29" d="M9.8,13.213c2.816-1.352,12.726-8.296,22.271,3.383c8.651,10.583,10.322,14.569,13.498,12.113  C49.392,25.75,34.476-3.813,8.369,12.723C7.833,13.383,8.394,13.89,9.8,13.213z"/>
<path fill="#B61F29" d="M17.524,5.487c2.816-1.352,12.726-8.296,22.272,3.383c8.648,10.581,10.319,14.569,13.497,12.113  c3.824-2.958-11.097-32.523-37.199-15.989C15.559,5.659,16.121,6.164,17.524,5.487z"/>
</svg>